<svg width="32" height="32" viewBox="0 0 32 32" fill="none" xmlns="http://www.w3.org/2000/svg">
<g clip-path="url(#clip0_41_1421)">
<path d="M9.33334 9.33331H8C7.29276 9.33331 6.61448 9.61426 6.11438 10.1144C5.61429 10.6145 5.33334 11.2927 5.33334 12V24C5.33334 24.7072 5.61429 25.3855 6.11438 25.8856C6.61448 26.3857 7.29276 26.6666 8 26.6666H20C20.7072 26.6666 21.3855 26.3857 21.8856 25.8856C22.3857 25.3855 22.6667 24.7072 22.6667 24V22.6666" stroke="black" stroke-width="2" stroke-linecap="round" stroke-linejoin="round"/>
<path d="M27.18 8.78002C27.7051 8.25489 28.0001 7.54266 28.0001 6.80002C28.0001 6.05738 27.7051 5.34515 27.18 4.82002C26.6549 4.29489 25.9426 3.99988 25.2 3.99988C24.4574 3.99988 23.7451 4.29489 23.22 4.82002L12 16V20H16L27.18 8.78002Z" stroke="black" stroke-width="2" stroke-linecap="round" stroke-linejoin="round"/>
<path d="M21.3333 6.66669L25.3333 10.6667" stroke="black" stroke-width="2" stroke-linecap="round" stroke-linejoin="round"/>
</g>
<defs>
<clipPath id="clip0_41_1421">
<rect width="32" height="32" fill="white"/>
</clipPath>
</defs>
</svg>
