<svg width="214" height="156" viewBox="0 0 214 156" fill="none" xmlns="http://www.w3.org/2000/svg">
<g opacity="0.25" clip-path="url(#clip0_41_349)">
<path fill-rule="evenodd" clip-rule="evenodd" d="M109.901 154.331C109.793 154.368 109.684 154.405 109.575 154.441C106.987 155.305 103.932 155.821 100.385 155.821C95.4584 155.821 91.0339 154.67 87.0776 152.504C82.8632 150.196 79.521 146.923 77.0824 142.653C74.8282 138.707 73.5516 134.049 73.5516 128.606C73.5516 123.109 74.8426 118.436 77.0993 114.51C79.5346 110.272 82.869 107.013 87.0776 104.709C91.0339 102.543 95.4584 101.392 100.385 101.392C103.932 101.392 106.987 101.908 109.575 102.771C111.764 103.501 113.793 104.396 115.65 105.43C115.969 105.6 116.277 105.78 116.575 105.967C116.851 105.692 117.142 105.423 117.445 105.161C120.037 102.926 123.222 101.595 127.154 101.595H127.561C131.709 101.595 134.93 103.05 137.454 105.306C137.699 105.525 137.935 105.748 138.162 105.976C140.933 103.208 144.308 101.799 148.308 101.799H164.133C165.712 101.799 167.193 102.021 168.578 102.46C169.969 102.02 171.458 101.799 173.042 101.799H189.357C193.355 101.799 196.728 103.221 199.504 105.999C202.279 108.776 203.7 112.151 203.7 116.151C203.7 119.08 202.944 121.648 201.483 123.877C201.982 125.344 202.237 126.919 202.237 128.606C202.237 130.314 201.98 131.898 201.476 133.364C202.95 135.621 203.7 138.197 203.7 141.103C203.7 145.24 202.191 148.656 199.32 151.415C196.589 154.036 193.287 155.414 189.357 155.414H173.042C168.992 155.414 165.606 153.967 162.835 151.194C162.029 150.388 161.336 149.53 160.757 148.618C160.112 149.668 159.316 150.65 158.367 151.564C155.578 154.25 152.233 155.617 148.308 155.617C146.596 155.617 145.001 155.358 143.52 154.849C142.064 155.348 140.452 155.617 138.666 155.617C133.714 155.617 129.958 153.853 127.357 150.386C124.756 153.853 121 155.617 116.048 155.617C113.719 155.617 111.683 155.157 109.901 154.331ZM148.495 136.912C148.495 136.914 148.495 136.914 148.495 136.912V136.912Z" fill="#2D1C14"/>
<path fill-rule="evenodd" clip-rule="evenodd" d="M53.3345 108.183C52.567 108.589 51.7395 108.982 50.8485 109.36C50.8417 109.365 50.8352 109.368 50.8286 109.37C47.6643 110.706 44.4917 111.334 41.3274 111.334C39.4662 111.334 36.7651 111.016 33.2615 110.139C32.7574 110.013 32.2617 109.857 31.7771 109.668C27.6934 108.09 25.5344 107.097 25.249 106.934C23.197 105.77 20.798 103.84 18.3468 100.842C16.311 98.3599 14.3326 94.4778 13.1875 88.8764C13.1792 88.8366 13.1711 88.7965 13.1636 88.7564C12.5248 85.4704 12.2159 82.2973 12.2159 79.2394C12.2159 75.4178 12.759 72.4335 13.5104 70.2408C13.6646 69.7909 13.8439 69.3504 14.0477 68.9209C16.9843 62.7353 21.0018 57.9517 25.9266 54.4552C29.4997 51.8903 33.1464 50.3574 36.6585 49.6915C37.352 49.5529 39.4256 49.2968 42.8929 49.0655C43.9363 48.9959 44.9842 49.0567 46.0124 49.2462C50.3389 50.0436 53.7431 52.0743 56.3618 55.0931C56.6051 55.3736 56.8386 55.6592 57.062 55.9495C57.6235 55.6804 58.194 55.4371 58.7721 55.2191C60.1918 54.6838 61.6964 54.4098 63.2133 54.4098C69.5427 54.4098 74.7025 55.7353 78.828 57.9862C80.4568 56.784 82.5581 55.7567 85.2725 55.1173C87.2088 54.642 89.1456 54.4098 91.0819 54.4098C95.9246 54.4098 99.4186 55.5785 101.908 57.3453C103.272 57.1608 104.641 57.0703 106.014 57.0703C106.678 57.0703 107.343 57.0917 108.006 57.1351C110.534 55.2978 113.856 54.2564 118.132 54.2564C120.573 54.2564 122.8 54.712 124.816 55.5311C126.731 55.0172 128.663 54.768 130.61 54.768C135.272 54.768 139.42 56.0344 143.07 58.5452C145.496 56.9103 148.216 55.7907 151.159 55.1274C151.637 55.0195 152.121 54.9396 152.609 54.8882C154.783 54.6593 156.584 54.5265 158.015 54.4759L158.02 54.4754C159.799 54.3453 160.738 54.3075 160.831 54.3075C164.831 54.3075 168.207 55.1375 171.038 56.604C172.24 56.0032 173.623 55.4931 175.22 55.1173C177.157 54.642 179.094 54.4098 181.028 54.4098C185.872 54.4098 189.366 55.5785 191.855 57.3453C193.22 57.1608 194.588 57.0703 195.961 57.0703C196.925 57.0703 197.89 57.1157 198.852 57.2072C204.152 57.2309 208.427 59.5796 211.45 64.6802C211.482 64.7372 211.515 64.7946 211.548 64.8523C212.911 67.2348 213.822 70.1856 213.822 73.8162C213.822 76.2316 213.392 78.4911 212.588 80.6047C212.553 80.6944 212.518 80.7839 212.482 80.8731C210.029 86.8964 205.822 89.3497 201.391 90.0272C200.5 90.2182 199.668 90.3957 198.898 90.559C199.109 92.1339 199.197 93.4105 199.197 94.3838C199.197 98.6256 197.915 101.661 196.275 103.832C193.585 108.103 188.95 111.283 181.285 111.283C176.905 111.283 173.544 110.28 170.988 108.672C170.638 108.831 170.277 108.987 169.907 109.144C169.884 109.151 169.864 109.159 169.844 109.169C166.791 110.419 163.665 111.026 160.474 111.026C158.652 111.026 156.013 110.731 152.587 109.927C152.073 109.807 151.564 109.653 151.068 109.469C149.091 108.733 147.562 108.123 146.478 107.672C143.902 109.771 140.058 111.437 134.445 111.437C131.569 111.437 129.172 110.999 127.18 110.258C125.05 111.001 122.47 111.437 119.36 111.437C111.964 111.437 107.533 108.834 104.981 105.676C102.177 108.987 97.8521 111.283 91.3376 111.283C86.8599 111.283 83.4485 110.235 80.8724 108.564C80.1285 108.955 79.3464 109.27 78.5371 109.504C74.0279 110.815 70.087 111.387 66.7416 111.387C62.2732 111.387 58.1719 110.477 54.4186 108.748C54.0476 108.577 53.6859 108.388 53.3345 108.183ZM174.96 90.3233C174.854 90.5245 174.754 90.7256 174.658 90.9247C174.655 90.929 174.655 90.9333 174.653 90.9375C174.751 90.7384 174.854 90.5418 174.963 90.3485L174.96 90.3233ZM197.18 65.1631V65.1689C197.447 65.125 197.711 65.0898 197.981 65.063C197.714 65.0898 197.447 65.1225 197.18 65.1631ZM196.522 82.3024C197.366 82.4319 198.253 82.4611 199.18 82.3971C198.346 82.4546 197.51 82.4291 196.684 82.3213C196.631 82.3142 196.575 82.3079 196.522 82.3024Z" fill="#2D1C14"/>
<path fill-rule="evenodd" clip-rule="evenodd" d="M51.5513 15.8071C51.6876 14.7711 51.8923 13.7947 52.1565 12.8695C52.719 13.2021 53.2559 13.5815 53.7545 14.0163C52.9491 14.2679 52.216 14.8649 51.5513 15.8071Z" fill="#2D1C14"/>
<path fill-rule="evenodd" clip-rule="evenodd" d="M116.088 13.7179C116.37 14.1784 116.634 14.6729 116.881 15.2059C116.425 15.1675 115.965 15.1463 115.504 15.1463C115.692 14.6816 115.897 14.1826 116.088 13.7179Z" fill="#2D1C14"/>
<path fill-rule="evenodd" clip-rule="evenodd" d="M51.5479 15.8073C51.6854 14.7712 51.8902 13.7931 52.1555 12.8699C52.7187 13.201 53.253 13.5816 53.7535 14.0169C52.9479 14.2679 52.2127 14.8647 51.5479 15.8073ZM116.086 13.7144C116.366 14.1762 116.632 14.6719 116.88 15.2045C116.423 15.1654 115.964 15.1455 115.504 15.1442C115.691 14.679 115.894 14.1792 116.086 13.7144Z" fill="#2D1C14"/>
<path fill-rule="evenodd" clip-rule="evenodd" d="M60.9107 61.1055C59.1519 61.6219 57.2904 61.8873 55.3224 61.8873C53.0123 61.8873 50.9402 61.5208 49.0819 60.8653C46.7582 61.943 43.8922 62.5524 40.3908 62.5524C36.1607 62.5524 32.6229 61.3812 29.6717 59.4126C29.5971 59.3629 29.5231 59.3125 29.4498 59.2611C24.9804 56.1402 22.5592 51.8256 22.2884 46.2612C22.2874 46.239 22.2864 46.2169 22.2854 46.1947C21.8637 36.4811 21.6599 30.304 21.6599 27.6642C21.6599 21.3835 21.9866 16.3494 22.569 12.5576L22.5703 12.549C23.3741 7.22883 27.2228 0.102081 39.2147 0.102081C43.4241 0.102081 46.7124 0.877083 49.2522 2.1617C51.0258 1.54043 52.8503 1.27882 54.6576 1.27882C56.7091 1.27882 58.7451 1.60193 60.7437 2.30762C63.3951 0.904303 66.6796 0.0370554 70.7177 0.103844C70.7394 0.104096 70.7613 0.104602 70.7832 0.105106C75.276 0.202895 78.6196 1.54043 81.0809 3.31374C83.6679 1.35343 87.3992 -0.000244141 92.7021 -0.000244141C94.7822 -0.000244141 96.7898 0.258845 98.7264 0.761147C98.7861 0.776774 98.8458 0.792652 98.9052 0.809034C103.424 2.05257 106.218 4.22131 107.902 6.64361C110.221 3.0607 114.642 -0.000244141 122.616 -0.000244141C124.696 -0.000244141 126.704 0.258845 128.641 0.761147C128.7 0.776774 128.76 0.792652 128.819 0.809034C133.309 2.04425 136.095 4.19283 137.783 6.59547C140.212 5.8439 142.674 5.47417 145.167 5.47417C148.287 5.47417 150.86 5.95102 152.971 6.75752C154.999 6.0483 157.42 5.62766 160.303 5.62766C163.594 5.62766 166.491 6.30311 169.015 7.4607C176.35 10.7303 178.751 16.1843 178.4 22.3123C178.235 25.3152 177.451 28.9365 175.793 33.1126C174.836 35.5236 173.265 38.8981 171.048 43.2212C171.045 43.2267 171.042 43.2323 171.039 43.2378C169.868 45.5117 168.095 48.9053 165.719 53.4187C165.682 53.4895 165.644 53.5599 165.605 53.6299C159.222 65.2159 151.142 68.2022 145.916 67.9111C139.974 67.6367 135.643 65.4546 132.534 62.349C132.287 62.1018 132.051 61.8538 131.827 61.6053C129.556 62.1708 127.235 62.4501 124.866 62.4501C119.068 62.4501 114.482 60.7625 110.981 57.6075C110.331 58.0471 109.637 58.4685 108.898 58.8709C108.888 58.8765 108.877 58.882 108.867 58.8876C104.441 61.2817 99.7972 62.4501 94.952 62.4501C89.8509 62.4501 85.687 61.1435 82.3756 58.6807C79.7013 60.9999 75.6498 62.8082 69.6401 62.8082C66.0564 62.8082 63.1903 62.1406 60.9107 61.1055ZM51.548 15.8073C52.2127 14.8647 52.948 14.2679 53.7536 14.0168C53.2531 13.5816 52.7188 13.201 52.1556 12.8698C51.8903 13.793 51.6855 14.7712 51.548 15.8073ZM116.086 13.7144C115.894 14.1791 115.691 14.6789 115.504 15.1442C115.964 15.1454 116.423 15.1654 116.88 15.2044C116.632 14.6719 116.366 14.1761 116.086 13.7144Z" fill="#2D1C14"/>
<path d="M35.0219 14.4471C35.1923 13.2873 36.5901 12.7032 39.215 12.7032C42.5218 12.7032 44.2432 13.59 44.3796 15.3637C44.4818 15.9436 44.533 16.6598 44.533 17.5126V18.8429C44.4989 20.0367 44.4818 20.48 44.4818 20.173C44.4818 22.0831 44.925 23.2769 45.8114 23.7545C47.0045 23.9932 48.0102 23.2599 48.8284 21.5545C49.2034 20.7359 49.9363 19.0986 51.0272 16.6427C52.0499 14.8009 53.26 13.88 54.6577 13.88C56.0554 13.88 57.402 14.4002 58.6974 15.4405C59.9928 16.4808 60.6405 17.6831 60.6405 19.0474C60.6405 19.4226 60.5724 19.832 60.4361 20.2754C59.8565 22.2196 58.6124 24.249 56.7033 26.3638C54.9647 28.308 53.1409 29.843 51.2318 30.9686C53.1409 31.8895 55.0499 33.5608 56.959 35.9826C59.243 38.9159 60.5555 41.8493 60.8964 44.7827C61.0328 46.147 60.4532 47.2726 59.1577 48.1594C58.0328 48.9098 56.7543 49.285 55.3225 49.285C53.993 49.285 52.9021 48.961 52.0498 48.3129C51.4703 47.5625 50.8397 46.3175 50.1579 44.578C49.3398 42.4632 48.7602 41.1501 48.4193 40.6385C47.6693 39.4447 46.8 38.8477 45.8114 38.8477C45.5386 38.8477 45.249 38.886 44.9421 38.9543C44.1581 39.4318 43.766 40.3399 43.766 41.6745C43.766 42.945 44.1581 44.8125 44.9421 47.2811C44.5331 49.0633 43.0161 49.9502 40.3911 49.9502C38.9253 49.9502 37.6808 49.6091 36.6581 48.927C35.5331 48.1424 34.9366 47.0509 34.8684 45.6482C34.4593 36.2213 34.2549 30.2267 34.2549 27.6643C34.2549 22.1685 34.5105 17.7599 35.0219 14.4471Z" fill="white"/>
<path d="M64.9872 28.3081C65.6008 27.1825 67.1009 26.6196 69.4872 26.6196C72.0781 26.6196 73.7314 27.2506 74.4473 28.5127C74.9928 29.5018 75.2653 32.8957 75.2653 38.6942C75.2653 43.8105 75.0437 47.085 74.6005 48.5176C74.1233 49.6432 72.4699 50.206 69.6404 50.206C67.0495 50.206 65.5326 49.6944 65.0894 48.6712C64.3394 46.9657 63.9645 43.2477 63.9645 37.5174C63.9645 32.2987 64.3054 29.2291 64.9872 28.3081ZM63.9645 18.1777C64.2031 14.4599 66.385 12.635 70.5099 12.7033C72.078 12.7374 73.237 13.087 73.987 13.7521C74.737 14.4172 75.2994 15.5172 75.6744 17.0521C75.8108 17.5978 75.8791 18.1266 75.8791 18.6382C75.8791 20.446 75.2739 21.8615 74.0637 22.8848C72.8535 23.9081 71.3281 24.4196 69.4872 24.4196C67.8509 24.4196 66.4956 23.7886 65.4218 22.5266C64.3479 21.2645 63.8622 19.815 63.9645 18.1777Z" fill="white"/>
<path d="M80.9415 28.2568C81.2142 28.3591 81.5039 28.4104 81.8107 28.4104C82.2198 28.4104 82.8419 28.2995 83.6771 28.0778C84.5123 27.8561 85.1347 27.7452 85.5438 27.7452C86.1915 27.7452 86.822 27.9157 87.4356 28.2568C87.7084 28.3933 87.8448 28.905 87.8448 29.7918C87.8448 31.0538 87.6828 32.9469 87.3589 35.4709C87.0351 37.995 86.8731 39.888 86.8731 41.1501C86.8731 43.2307 87.1459 44.7826 87.6913 45.8059C89.1231 48.5005 91.5434 49.8478 94.9524 49.8478C97.7137 49.8478 100.356 49.1657 102.879 47.8013C105.197 46.5393 106.356 44.8508 106.356 42.7361C106.356 40.6554 105.452 39.24 103.646 38.4896C103.202 38.3873 102.793 38.3361 102.418 38.3361C101.668 38.3361 100.876 38.6175 100.041 39.1803C99.2053 39.7431 98.6001 40.0245 98.2251 40.0245C97.9524 40.0245 97.6287 39.9562 97.2537 39.8198C96.3673 39.4787 95.9241 37.6709 95.9241 34.3964C95.9241 31.0879 96.2309 29.0925 96.8446 28.4104C97.1514 27.8305 98.3956 27.7111 100.577 28.0522C102.964 28.3932 104.464 28.308 105.077 27.7963C105.827 27.3529 106.202 26.2444 106.202 24.4707C106.202 23.6862 106.1 22.8506 105.896 21.9638C105.657 20.7359 105.299 20.0196 104.822 19.8149C104.106 19.4739 102.725 19.4397 100.68 19.7125C98.3617 20.0195 97.2024 19.7297 97.2024 18.8429C97.2024 19.5932 97.2877 19.2094 97.4581 17.6916C97.6286 16.1737 97.6969 15.142 97.6628 14.5963C97.6287 13.88 96.9298 13.3342 95.5662 12.959C94.6458 12.7203 93.6913 12.6008 92.7027 12.6008C89.8732 12.6008 88.4071 13.1808 88.3049 14.3405C88.2367 15.2955 88.3902 16.6086 88.7652 18.28C88.7652 18.5528 88.5607 18.9963 88.1517 19.6103C87.913 19.8149 87.521 19.9172 86.9755 19.9172C86.4642 19.9172 85.7226 19.8405 84.751 19.687C83.7794 19.5335 83.0381 19.4567 82.5267 19.4567C81.879 19.4567 81.3506 19.559 80.9415 19.7637C79.6802 20.1048 79.0494 21.5375 79.0494 24.0615C79.0494 26.5856 79.6802 27.984 80.9415 28.2568Z" fill="white"/>
<path d="M110.856 28.2568C111.128 28.3591 111.418 28.4104 111.725 28.4104C112.134 28.4104 112.756 28.2995 113.591 28.0778C114.426 27.8561 115.048 27.7452 115.458 27.7452C116.105 27.7452 116.736 27.9157 117.35 28.2568C117.622 28.3933 117.759 28.905 117.759 29.7918C117.759 31.0538 117.597 32.9469 117.273 35.4709C116.949 37.995 116.787 39.888 116.787 41.1501C116.787 43.2307 117.06 44.7826 117.605 45.8059C119.037 48.5005 121.457 49.8478 124.866 49.8478C127.628 49.8478 130.27 49.1657 132.792 47.8013C135.111 46.5393 136.27 44.8508 136.27 42.7361C136.27 40.6554 135.366 39.24 133.559 38.4896C133.116 38.3873 132.707 38.3361 132.332 38.3361C131.582 38.3361 130.79 38.6175 129.955 39.1803C129.119 39.7431 128.514 40.0245 128.139 40.0245C127.866 40.0245 127.542 39.9562 127.167 39.8198C126.281 39.4787 125.838 37.6709 125.838 34.3964C125.838 31.0879 126.145 29.0925 126.759 28.4104C127.065 27.8305 128.31 27.7111 130.491 28.0522C132.878 28.3932 134.378 28.308 134.991 27.7963C135.741 27.3529 136.116 26.2444 136.116 24.4707C136.116 23.6862 136.014 22.8506 135.809 21.9638C135.571 20.7359 135.213 20.0196 134.736 19.8149C134.02 19.4739 132.639 19.4397 130.594 19.7125C128.275 20.0195 127.117 19.7297 127.117 18.8429C127.117 19.5932 127.202 19.2094 127.372 17.6916C127.543 16.1737 127.611 15.142 127.577 14.5963C127.543 13.88 126.844 13.3342 125.48 12.959C124.56 12.7203 123.605 12.6008 122.616 12.6008C119.787 12.6008 118.321 13.1808 118.219 14.3405C118.151 15.2955 118.304 16.6086 118.679 18.28C118.679 18.5528 118.475 18.9963 118.065 19.6103C117.827 19.8149 117.435 19.9172 116.889 19.9172C116.378 19.9172 115.637 19.8405 114.665 19.687C113.694 19.5335 112.952 19.4567 112.441 19.4567C111.793 19.4567 111.265 19.559 110.856 19.7637C109.594 20.1048 108.963 21.5375 108.963 24.0615C108.963 26.5856 109.594 27.984 110.856 28.2568Z" fill="white"/>
<path d="M138.827 21.1451C138.827 20.0878 139.662 19.2692 141.332 18.6893C142.594 18.28 143.872 18.0753 145.167 18.0753C147.792 18.0753 149.19 18.7064 149.36 19.9599C149.633 21.8274 149.906 23.4731 150.179 24.8971C150.554 26.8669 151.321 27.9712 152.48 28.2057C153.707 28.2057 154.525 27.1654 154.934 25.0848C155.105 23.9592 155.394 22.2708 155.803 20.0196C156.144 18.8258 157.644 18.2289 160.303 18.2289C161.633 18.2289 162.809 18.4676 163.832 18.9451C165.229 19.5591 165.894 20.4459 165.826 21.6056C165.724 23.5157 165.144 25.801 164.087 28.4615C163.235 30.6104 161.82 33.612 159.843 37.4663C158.684 39.7175 156.928 43.0772 154.576 47.5455C151.644 52.8665 148.951 55.4588 146.497 55.3224C144.281 55.2201 142.594 54.5932 141.434 53.4335C140.684 52.6831 140.31 51.9881 140.31 51.3401C140.31 49.7711 141.775 46.8249 144.707 42.5016C146.787 39.4361 147.826 37.7136 147.826 37.3384C147.826 37.2019 147.758 37.0996 147.622 37.0314C144.554 35.9101 142.218 33.4202 140.616 29.5744C139.423 26.7135 138.827 23.9037 138.827 21.1451Z" fill="white"/>
<path d="M43.732 61.6344C41.1753 61.8049 39.6411 61.9414 39.1298 62.0437C37.1525 62.4189 35.1923 63.3057 33.2492 64.7042C29.9765 67.0236 27.3686 70.2298 25.4255 74.3229C25.0164 75.5167 24.812 77.1539 24.812 79.2346C24.812 81.5199 25.0504 83.8904 25.5277 86.3463C26.1413 89.3479 26.9937 91.5139 28.0846 92.8441C29.3119 94.3449 30.4368 95.3852 31.4595 95.9651C31.6982 96.1015 33.3175 96.7495 36.3174 97.9092C38.4992 98.455 40.1695 98.7278 41.3286 98.7278C42.8626 98.7278 44.3967 98.4038 45.9308 97.7557C48.1808 96.8007 49.6721 95.8286 50.4051 94.8394C51.138 93.8503 51.5897 92.3154 51.7601 90.2348C51.8283 89.2115 51.5642 88.3161 50.9677 87.5487C50.3711 86.7812 49.5614 86.3974 48.5387 86.3974C47.9251 86.3974 47.3114 86.5509 46.6978 86.8579C44.9251 87.9835 43.2889 88.5463 41.7889 88.5463C40.4253 88.5463 39.0104 88.0688 37.5445 87.1137C36.2491 85.3059 35.6014 83.106 35.6014 80.5137C35.6014 77.7509 36.1299 75.5849 37.1867 74.0159C37.9026 72.9585 39.5559 72.0717 42.1468 71.3554C44.2604 70.7756 45.5898 70.3321 46.1352 70.0251C47.3966 69.2747 48.0274 68.1492 48.0274 66.6484C48.0274 65.3523 47.6353 64.2523 46.8513 63.3484C46.0672 62.4445 45.0274 61.8732 43.732 61.6344Z" fill="white"/>
<path d="M63.2143 67.0066C60.8621 67.8934 58.9702 69.8546 57.5384 72.8903C56.8225 74.4252 55.9361 77.1369 54.8793 81.0253C54.6747 82.6967 54.5726 84.1804 54.5726 85.4766C54.5726 88.0689 54.956 90.2177 55.723 91.9231C56.49 93.6286 57.8113 95.4192 59.6862 97.2952C61.8339 98.2844 64.1859 98.7791 66.7427 98.7791C69.0949 98.7791 71.8563 98.3186 75.0267 97.3976C77.413 95.6581 78.9471 93.765 79.6289 91.7185C80.2085 89.9789 80.4641 87.0114 80.3959 82.816C79.5437 77.3244 77.8563 73.3508 75.3336 70.895C72.6405 68.3027 68.6006 67.0066 63.2143 67.0066ZM63.2655 83.9928C63.2996 83.1741 63.5724 82.1168 64.0838 80.8207C64.6974 79.2517 65.3111 78.4501 65.9247 78.416C67.1178 78.3478 68.2597 78.6036 69.3505 79.1834C70.6119 79.8656 71.2427 80.7866 71.2427 81.9463C71.2427 85.3231 69.8621 87.0114 67.1008 87.0114C64.4418 87.0114 63.1633 86.0052 63.2655 83.9928Z" fill="white"/>
<path d="M85.8162 68.7461C84.7935 70.0764 84.2822 73.5042 84.2822 79.0299C84.2822 81.6563 84.4526 84.7261 84.7935 88.2393C85.2708 93.2875 85.9184 96.0503 86.7366 96.5278C87.2821 97.9604 88.8162 98.6767 91.3389 98.6767C93.7593 98.6767 95.3103 97.9604 95.9921 96.5278C96.4353 96.1526 96.6569 95.4363 96.6569 94.3789C96.6569 93.2875 96.4353 91.6332 95.9921 89.4161C95.5489 87.199 95.3273 85.5447 95.3273 84.4532C95.3273 83.2253 95.5661 82.3726 96.0433 81.895C96.7251 80.8035 98.6342 79.8997 101.77 79.1834C103.441 78.8423 105.946 78.3136 109.287 77.5973C109.969 77.5291 110.497 77.0346 110.872 76.1136C111.145 75.3973 111.282 74.6298 111.282 73.8112C111.282 72.7197 111.077 71.8159 110.668 71.0996C110.123 70.1787 109.355 69.7522 108.367 69.8205C107.583 69.7181 106.799 69.6671 106.015 69.6671C102.674 69.6671 99.3841 70.6051 96.1455 72.4811C95.3615 72.5834 94.9694 72.4299 94.9694 72.0206C95.0035 71.85 95.1059 71.3213 95.2763 70.4345C95.4127 69.6841 95.3103 69.1213 94.9694 68.7461C94.8331 67.5864 93.5377 67.0066 91.0832 67.0066C90.1287 67.0066 89.1742 67.1259 88.2196 67.3647C86.8901 67.6716 86.0889 68.1321 85.8162 68.7461Z" fill="white"/>
<path d="M123.861 96.8434C123.895 98.1694 122.395 98.8303 119.361 98.8303C116.293 98.8303 114.657 98.2206 114.452 96.9927C113.702 92.567 113.327 87.2375 113.327 81.0041C113.327 74.6726 113.719 70.6861 114.503 69.0531C114.98 67.5865 116.191 66.8531 118.134 66.8531C118.986 66.8531 119.753 67.0237 120.435 67.3648C121.287 67.7741 121.747 68.3539 121.816 69.1043C121.816 69.5477 121.85 69.8206 121.918 69.923C122.02 70.1276 122.276 70.2469 122.685 70.281C123.401 70.3493 124.031 70.1277 124.577 69.616C125.225 68.9679 125.923 68.4904 126.673 68.1834C127.969 67.6377 129.281 67.3648 130.611 67.3648C133.1 67.3648 135.256 68.192 137.08 69.8377C138.903 71.4835 139.798 73.5257 139.764 75.9731C140.037 78.3479 140.173 81.0809 140.173 84.1677C140.173 90.2434 139.764 94.6561 138.946 97.4062C138.435 98.357 136.935 98.8303 134.446 98.8303C132.196 98.8303 130.935 98.2717 130.662 97.1547C130.355 96.8178 130.202 95.7179 130.202 93.8547C130.202 93.0787 130.227 91.902 130.279 90.3287C130.33 88.7554 130.355 87.5786 130.355 86.7984C130.355 81.4177 129.52 78.8595 127.85 79.1324C127.509 79.2006 126.622 79.3711 125.19 79.644C124.338 79.8145 123.827 80.5308 123.656 81.7886C123.588 82.1297 123.554 83.0975 123.554 84.6964C123.554 84.1165 123.657 88.167 123.861 96.8434Z" fill="white"/>
<path d="M158.684 67.0577C157.457 67.0918 155.872 67.2111 153.929 67.4158C149.088 68.5073 145.969 72.4298 144.571 79.1834C144.264 80.6501 144.11 81.8951 144.11 82.9184C144.11 87.1138 145.15 90.4224 147.23 92.8441C148.423 94.2084 149.548 95.1805 150.605 95.7604C150.912 95.9309 152.531 96.5619 155.463 97.6534C157.644 98.165 159.315 98.4208 160.474 98.4208C162.042 98.4208 163.576 98.1138 165.076 97.4999C167.292 96.5789 168.775 95.6495 169.525 94.7115C170.275 93.7735 170.735 92.3153 170.905 90.337C171.008 89.3138 170.752 88.4526 170.138 87.7533C169.525 87.0541 168.707 86.7045 167.684 86.7045C167.07 86.7045 166.457 86.8408 165.843 87.1137C164.445 88.0005 163.014 88.444 161.548 88.444C160.968 88.444 159.349 88.0859 156.69 87.3696C156.11 87.1991 155.607 86.8665 155.181 86.3719C154.755 85.8773 154.542 85.3401 154.542 84.7603C154.542 84.1122 154.832 83.6175 155.412 83.2765C155.514 83.2082 155.684 83.1742 155.923 83.1742C156.571 83.1742 157.602 83.3191 159.017 83.609C160.431 83.899 161.497 84.0439 162.213 84.0439C166.235 84.0439 168.638 81.7245 169.422 77.0857C169.422 70.298 166.559 66.9042 160.832 66.9042C160.764 66.9042 160.048 66.9554 158.684 67.0577ZM156.025 74.988C156.025 74.374 156.298 73.888 156.843 73.5299C157.389 73.1718 157.985 72.9927 158.633 72.9927C159.247 72.9927 159.826 73.1718 160.372 73.5299C160.917 73.888 161.19 74.374 161.19 74.988C161.19 75.6019 160.917 76.088 160.372 76.4462C159.826 76.8043 159.247 76.9834 158.633 76.9834C157.985 76.9834 157.389 76.8043 156.843 76.4462C156.298 76.088 156.025 75.6019 156.025 74.988Z" fill="white"/>
<path d="M175.763 68.7461C174.741 70.0764 174.229 73.5042 174.229 79.0299C174.229 81.6563 174.4 84.7261 174.741 88.2393C175.218 93.2875 175.866 96.0503 176.684 96.5278C177.229 97.9604 178.763 98.6767 181.286 98.6767C183.706 98.6767 185.257 97.9604 185.939 96.5278C186.382 96.1526 186.604 95.4363 186.604 94.3789C186.604 93.2875 186.382 91.6332 185.939 89.4161C185.496 87.199 185.274 85.5447 185.274 84.4532C185.274 83.2253 185.513 82.3726 185.99 81.895C186.672 80.8035 188.581 79.8997 191.717 79.1834C193.388 78.8423 195.894 78.3136 199.234 77.5973C199.916 77.5291 200.445 77.0346 200.82 76.1136C201.092 75.3973 201.228 74.6298 201.228 73.8112C201.228 72.7197 201.024 71.8159 200.615 71.0996C200.07 70.1787 199.303 69.7522 198.314 69.8205C197.53 69.7181 196.746 69.6671 195.962 69.6671C192.621 69.6671 189.331 70.6051 186.093 72.4811C185.309 72.5834 184.917 72.4299 184.917 72.0206C184.951 71.85 185.053 71.3213 185.223 70.4345C185.36 69.6841 185.257 69.1213 184.917 68.7461C184.78 67.5864 183.485 67.0066 181.03 67.0066C180.076 67.0066 179.121 67.1259 178.167 67.3647C176.837 67.6716 176.036 68.1321 175.763 68.7461Z" fill="white"/>
<path fill-rule="evenodd" clip-rule="evenodd" d="M100.383 145.457C97.2997 145.457 94.5232 144.768 92.0474 143.412C89.5257 142.032 87.5325 140.067 86.0734 137.512C84.647 135.014 83.9073 132.05 83.9073 128.606C83.9073 125.131 84.6496 122.158 86.0764 119.676C87.5349 117.138 89.5267 115.181 92.0474 113.801C94.5232 112.445 97.2997 111.756 100.383 111.756C102.663 111.756 104.633 112.048 106.297 112.603C107.888 113.133 109.36 113.782 110.714 114.544C111.34 114.868 111.818 115.311 112.167 115.851C112.49 116.351 112.726 117 112.784 117.823C112.785 117.83 112.785 117.836 112.786 117.843C112.852 118.906 112.526 119.838 111.795 120.635C111.088 121.406 110.147 121.849 108.926 121.849C108.283 121.849 107.708 121.707 107.193 121.45C107.18 121.443 107.167 121.437 107.154 121.43C106.192 120.924 105.206 120.515 104.196 120.202C103.241 119.906 102.091 119.773 100.749 119.773C98.822 119.773 97.1928 120.131 95.8788 120.919C94.6349 121.666 93.699 122.674 93.077 123.95C92.4055 125.328 92.083 126.882 92.083 128.606C92.083 130.331 92.4055 131.885 93.077 133.263C93.699 134.538 94.6349 135.547 95.8788 136.294C97.1928 137.082 98.822 137.44 100.749 137.44C102.091 137.44 103.241 137.307 104.196 137.011C105.206 136.698 106.192 136.289 107.154 135.783C107.167 135.777 107.18 135.77 107.193 135.763C107.708 135.506 108.283 135.364 108.926 135.364C110.147 135.364 111.088 135.807 111.795 136.578C112.526 137.375 112.852 138.307 112.786 139.37C112.785 139.377 112.785 139.383 112.784 139.39C112.726 140.213 112.49 140.862 112.167 141.362C111.818 141.902 111.34 142.345 110.718 142.667C109.361 143.431 107.888 144.08 106.297 144.61C104.633 145.165 102.663 145.457 100.383 145.457Z" fill="white"/>
<path fill-rule="evenodd" clip-rule="evenodd" d="M116.045 145.254C114.768 145.254 113.788 144.796 113.058 144.005C112.353 143.238 111.977 142.304 111.977 141.184C111.977 140.74 112.075 140.175 112.353 139.509C112.355 139.505 112.355 139.501 112.358 139.497L122.731 114.993C122.736 114.985 122.738 114.977 122.743 114.969C123.061 114.238 123.544 113.581 124.207 113.011C124.988 112.335 125.962 111.959 127.151 111.959H127.557C128.806 111.959 129.791 112.357 130.552 113.036C131.184 113.6 131.65 114.247 131.968 114.969C131.97 114.977 131.973 114.985 131.978 114.993L142.351 139.497C142.353 139.501 142.353 139.505 142.356 139.509C142.633 140.175 142.731 140.74 142.731 141.184C142.731 142.304 142.356 143.238 141.65 144.005C140.92 144.796 139.943 145.254 138.663 145.254C136.832 145.254 135.567 144.414 134.859 142.758C134.857 142.751 134.852 142.744 134.849 142.737L132.779 137.764H121.93L119.859 142.737C119.857 142.744 119.854 142.751 119.849 142.758C119.141 144.414 117.877 145.254 116.045 145.254ZM125.214 129.91H129.494L127.355 124.753L125.214 129.91Z" fill="white"/>
<path fill-rule="evenodd" clip-rule="evenodd" d="M148.306 145.254C147.163 145.254 146.205 144.852 145.423 144.069C144.641 143.287 144.239 142.328 144.239 141.184V116.273C144.239 115.152 144.626 114.195 145.393 113.398C146.183 112.577 147.152 112.163 148.306 112.163H164.131C165.243 112.163 166.182 112.555 166.954 113.327C167.726 114.099 168.118 115.039 168.118 116.151C168.118 117.287 167.71 118.229 166.921 118.987C166.158 119.72 165.231 120.099 164.131 120.099H152.414V124.618H162.708C163.819 124.618 164.758 125.01 165.53 125.783C166.302 126.555 166.694 127.495 166.694 128.606C166.694 129.743 166.286 130.684 165.497 131.442C164.734 132.176 163.807 132.554 162.708 132.554H152.414V141.184C152.414 142.339 152 143.309 151.18 144.099C150.384 144.866 149.427 145.254 148.306 145.254ZM148.712 128.547V128.625C148.727 128.612 148.743 128.599 148.758 128.586C148.743 128.573 148.727 128.56 148.712 128.547Z" fill="white"/>
<path fill-rule="evenodd" clip-rule="evenodd" d="M173.041 145.05C171.898 145.05 170.939 144.648 170.157 143.866C169.375 143.083 168.973 142.124 168.973 140.981V116.273C168.973 115.152 169.361 114.195 170.128 113.398C170.917 112.577 171.887 112.163 173.041 112.163H189.355C190.466 112.163 191.405 112.555 192.177 113.327C192.949 114.099 193.341 115.039 193.341 116.151C193.341 117.287 192.933 118.229 192.144 118.987C191.38 119.72 190.453 120.099 189.355 120.099H177.149V124.618H187.89C189.001 124.618 189.94 125.01 190.712 125.783C191.484 126.555 191.876 127.495 191.876 128.606C191.876 129.743 191.468 130.684 190.68 131.442C189.916 132.176 188.99 132.554 187.89 132.554H177.149V137.114H189.355C190.466 137.114 191.405 137.506 192.177 138.279C192.949 139.051 193.341 139.991 193.341 141.103C193.341 142.239 192.933 143.181 192.144 143.938C191.38 144.672 190.453 145.05 189.355 145.05H173.041ZM173.447 128.547V128.625C173.462 128.612 173.477 128.599 173.493 128.586C173.477 128.573 173.462 128.56 173.447 128.547Z" fill="white"/>
<path d="M201.751 42.9946C200.078 41.85 199.831 39.2986 201.199 37.296C202.567 35.2934 205.033 34.5979 206.706 35.7426C208.38 36.8873 208.627 39.4386 207.259 41.4412C205.89 43.4438 203.425 44.1393 201.751 42.9946Z" fill="#2D1C14"/>
<path d="M198.751 34.7314C197.003 33.7045 196.581 31.1762 197.808 29.0842C199.036 26.9923 201.448 26.1289 203.196 27.1558C204.943 28.1827 205.365 30.711 204.138 32.803C202.911 34.8949 200.499 35.7583 198.751 34.7314Z" fill="#2D1C14"/>
<path d="M184.26 35.813C186.203 36.0773 188.071 34.3505 188.434 31.9562C188.797 29.5618 187.516 27.4067 185.574 27.1425C183.631 26.8783 181.762 28.605 181.4 30.9994C181.037 33.3937 182.318 35.5488 184.26 35.813Z" fill="#2D1C14"/>
<path d="M192.05 31.43C193.967 31.8312 195.944 30.2377 196.466 27.8707C196.987 25.5038 195.856 23.2598 193.939 22.8586C192.022 22.4574 190.045 24.051 189.523 26.4179C189.002 28.7849 190.133 31.0289 192.05 31.43Z" fill="#2D1C14"/>
<path fill-rule="evenodd" clip-rule="evenodd" d="M194.902 33.2905C194.943 33.2976 194.984 33.3092 195.024 33.3247C197.372 34.2395 197.747 36.7143 197.721 39.2354C197.713 40.0409 198.035 40.7411 199.055 41.9976C199.736 42.8385 200.444 44.5828 199.531 46.9317C198.617 49.2809 195.818 50.5485 193.47 49.6337C190.852 48.6138 191.368 47.4626 189.908 46.8936C189.884 46.8844 189.862 46.8727 189.84 46.8582C189.817 46.8553 189.795 46.8497 189.774 46.8415C188.382 46.299 187.61 47.3505 185.119 46.38C182.884 45.5092 181.777 42.7194 182.691 40.3703C183.605 38.0214 185.244 37.1918 186.274 37.0177C187.811 36.7574 188.498 36.4505 189.023 35.8463C190.667 33.9555 192.559 32.3643 194.796 33.236C194.834 33.2506 194.868 33.2683 194.902 33.2905Z" fill="#2D1C14"/>
<path d="M64.4327 129.559C62.5421 130.289 60.3013 129.047 59.4279 126.784C58.5545 124.521 59.3791 122.094 61.2697 121.363C63.1604 120.632 65.4011 121.875 66.2745 124.138C67.148 126.401 66.3233 128.828 64.4327 129.559Z" fill="#2D1C14"/>
<path d="M55.9281 127.349C54.0921 128.208 51.7713 127.123 50.7445 124.925C49.7176 122.727 50.3735 120.249 52.2095 119.39C54.0455 118.532 56.3663 119.617 57.3931 121.814C58.42 124.012 57.7641 126.49 55.9281 127.349Z" fill="#2D1C14"/>
<path d="M48.6056 139.907C49.9238 138.456 49.5609 135.936 47.795 134.28C46.0291 132.624 43.529 132.458 42.2107 133.909C40.8925 135.361 41.2554 137.88 43.0213 139.537C44.7872 141.193 47.2874 141.359 48.6056 139.907Z" fill="#2D1C14"/>
<path d="M49.4113 131.002C50.8279 129.649 50.636 127.116 48.9827 125.344C47.3294 123.572 44.8408 123.233 43.4243 124.586C42.0077 125.939 42.1996 128.472 43.8529 130.244C45.5062 132.015 47.9948 132.355 49.4113 131.002Z" fill="#2D1C14"/>
<path fill-rule="evenodd" clip-rule="evenodd" d="M52.5607 129.703C52.5895 129.674 52.6225 129.646 52.6579 129.622C54.7414 128.205 56.9919 129.299 59.0527 130.75C59.7114 131.213 60.4707 131.344 62.083 131.216C63.1615 131.131 64.9991 131.535 66.4153 133.62C67.8316 135.705 67.2891 138.732 65.2056 140.149C62.8825 141.728 62.2267 140.651 60.9308 141.532C60.9099 141.546 60.8875 141.558 60.8635 141.568C60.848 141.585 60.8308 141.6 60.812 141.613C59.5765 142.453 60.0052 143.685 57.7946 145.188C55.8111 146.537 52.8867 145.869 51.4704 143.784C50.0541 141.699 50.3001 139.877 50.7405 138.929C51.397 137.515 51.5337 136.774 51.3333 135.999C50.7081 133.572 50.4703 131.11 52.4558 129.76C52.4892 129.737 52.5228 129.719 52.5607 129.703Z" fill="#2D1C14"/>
<path d="M14.5116 32.703C13.2984 32.8849 12.1389 31.8551 11.9219 30.403C11.7048 28.9508 12.5124 27.6262 13.7257 27.4444C14.9389 27.2625 16.0984 28.2923 16.3155 29.7444C16.5325 31.1966 15.7249 32.5212 14.5116 32.703Z" fill="#2D1C14"/>
<path d="M9.77957 30.2741C8.58166 30.5389 7.35417 29.5914 7.03789 28.1576C6.72161 26.7239 7.43632 25.3469 8.63422 25.082C9.83212 24.8171 11.0596 25.7647 11.3759 27.1985C11.6922 28.6322 10.9775 30.0092 9.77957 30.2741Z" fill="#2D1C14"/>
<path d="M3.79705 36.724C4.76734 36.0406 4.8857 34.5045 4.0614 33.2929C3.2371 32.0813 1.78229 31.653 0.811993 32.3363C-0.158301 33.0197 -0.276658 34.5558 0.547643 35.7674C1.37194 36.979 2.82676 37.4073 3.79705 36.724Z" fill="#2D1C14"/>
<path d="M5.44847 31.5703C6.46386 30.9582 6.68503 29.4366 5.94246 28.1717C5.1999 26.9068 3.7748 26.3775 2.75942 26.9896C1.74403 27.6017 1.52286 29.1233 2.26543 30.3882C3.00799 31.6531 4.43309 32.1823 5.44847 31.5703Z" fill="#2D1C14"/>
<path fill-rule="evenodd" clip-rule="evenodd" d="M7.48065 31.22C7.50154 31.2065 7.52469 31.1945 7.54879 31.185C8.96654 30.6233 10.1514 31.5663 11.177 32.6955C11.505 33.0561 11.9361 33.2339 12.9054 33.371C13.5536 33.4632 14.5855 33.9451 15.1467 35.3636C15.7079 36.7823 14.9878 38.4981 13.57 39.0599C11.9893 39.6862 11.7442 38.9631 10.8624 39.3125C10.8482 39.3181 10.8334 39.3222 10.8179 39.3245C10.8064 39.3328 10.7943 39.3394 10.7815 39.3445C9.94082 39.6776 10.0313 40.4619 8.5271 41.0579C7.1774 41.5927 5.53836 40.8115 4.97715 39.3928C4.41599 37.9743 4.80183 36.9307 5.18717 36.429C5.76177 35.6802 5.94028 35.2608 5.92425 34.7767C5.87547 33.2605 6.06016 31.7748 7.41127 31.2395C7.43396 31.2305 7.45617 31.2245 7.48065 31.22Z" fill="#2D1C14"/>
</g>
<defs>
<clipPath id="clip0_41_349">
<rect width="214" height="156" fill="white"/>
</clipPath>
</defs>
</svg>
