<svg width="266" height="69" viewBox="0 0 266 69" fill="none" xmlns="http://www.w3.org/2000/svg">
<path fill-rule="evenodd" clip-rule="evenodd" d="M208.813 39.1369C208.746 39.1613 208.68 39.1856 208.614 39.2095C207.036 39.778 205.173 40.1179 203.011 40.1179C200.007 40.1179 197.31 39.3597 194.898 37.9331C192.328 36.4134 190.29 34.2578 188.804 31.4456C187.429 28.8461 186.651 25.7784 186.651 22.1939C186.651 18.5731 187.438 15.4959 188.814 12.9095C190.299 10.1185 192.332 7.97235 194.898 6.45483C197.31 5.02828 200.007 4.27002 203.011 4.27002C205.173 4.27002 207.036 4.60998 208.614 5.17851C209.949 5.65923 211.185 6.24834 212.317 6.92958C212.512 7.04179 212.7 7.15981 212.881 7.28331C213.05 7.10205 213.227 6.9251 213.412 6.75246C214.992 5.28043 216.934 4.40398 219.331 4.40398H219.579C222.108 4.40398 224.072 5.36209 225.611 6.84774C225.76 6.99199 225.905 7.13923 226.043 7.28945C227.732 5.46584 229.79 4.5381 232.229 4.5381H241.876C242.839 4.5381 243.742 4.68418 244.587 4.97351C245.435 4.68385 246.342 4.5381 247.308 4.5381H257.255C259.693 4.5381 261.749 5.47464 263.441 7.30406C265.134 9.13348 266 11.3563 266 13.9905C266 15.9198 265.539 17.6113 264.648 19.0792C264.953 20.0451 265.108 21.0829 265.108 22.1939C265.108 23.3183 264.951 24.3618 264.644 25.3274C265.542 26.8137 266 28.5103 266 30.4242C266 33.149 265.08 35.3992 263.329 37.2159C261.665 38.9425 259.651 39.8499 257.255 39.8499H247.308C244.839 39.8499 242.775 38.8967 241.085 37.0705C240.594 36.5396 240.172 35.9746 239.818 35.3743C239.425 36.0657 238.94 36.7121 238.361 37.3141C236.661 39.0835 234.621 39.984 232.229 39.984C231.184 39.984 230.212 39.8133 229.309 39.4782C228.422 39.8062 227.439 39.984 226.35 39.984C223.331 39.984 221.041 38.822 219.455 36.5384C217.869 38.822 215.579 39.984 212.56 39.984C211.14 39.984 209.899 39.681 208.813 39.1369ZM232.342 27.6642C232.342 27.6656 232.342 27.6656 232.342 27.6642V27.6642Z" fill="#2D1C14"/>
<path fill-rule="evenodd" clip-rule="evenodd" d="M203.013 33.2929C201.134 33.2929 199.441 32.8385 197.931 31.9458C196.394 31.0365 195.179 29.7424 194.289 28.0597C193.419 26.4148 192.968 24.4626 192.968 22.1945C192.968 19.9053 193.421 17.9477 194.291 16.3125C195.18 14.6409 196.394 13.3522 197.931 12.4433C199.441 11.5505 201.134 11.0962 203.013 11.0962C204.404 11.0962 205.605 11.2888 206.619 11.6544C207.589 12.0036 208.487 12.4307 209.312 12.9325C209.694 13.1462 209.985 13.4381 210.198 13.7935C210.395 14.1228 210.538 14.55 210.574 15.0924C210.575 15.0968 210.575 15.1011 210.575 15.1055C210.616 15.8054 210.416 16.4192 209.971 16.9441C209.54 17.4524 208.966 17.7439 208.222 17.7439C207.83 17.7439 207.479 17.6504 207.166 17.481C207.157 17.4766 207.149 17.4722 207.142 17.4677C206.555 17.1349 205.954 16.8652 205.338 16.6592C204.756 16.4644 204.055 16.3766 203.236 16.3766C202.062 16.3766 201.068 16.6122 200.267 17.1316C199.509 17.6234 198.938 18.2876 198.559 19.1277C198.15 20.035 197.953 21.0586 197.953 22.1945C197.953 23.3305 198.15 24.354 198.559 25.2613C198.938 26.1014 199.509 26.7656 200.267 27.2574C201.068 27.7769 202.062 28.0125 203.236 28.0125C204.055 28.0125 204.756 27.9247 205.338 27.7299C205.954 27.5238 206.555 27.2542 207.142 26.9214C207.149 26.9168 207.157 26.9125 207.166 26.9081C207.479 26.7387 207.83 26.6452 208.222 26.6452C208.966 26.6452 209.54 26.9366 209.971 27.4449C210.416 27.9699 210.616 28.5836 210.575 29.2836C210.575 29.2879 210.575 29.2923 210.574 29.2966C210.538 29.8391 210.395 30.2662 210.198 30.5956C209.985 30.9512 209.693 31.2431 209.315 31.4551C208.487 31.9582 207.589 32.3854 206.619 32.7346C205.605 33.1002 204.404 33.2929 203.013 33.2929Z" fill="url(#paint0_linear_16_439)"/>
<path fill-rule="evenodd" clip-rule="evenodd" d="M212.562 33.1589C211.784 33.1589 211.186 32.8573 210.741 32.3363C210.311 31.8317 210.082 31.216 210.082 30.4785C210.082 30.186 210.142 29.8142 210.311 29.3755C210.312 29.3728 210.312 29.3701 210.314 29.3675L216.638 13.2287C216.641 13.2234 216.643 13.2181 216.646 13.2128C216.839 12.7316 217.134 12.299 217.538 11.9232C218.014 11.478 218.609 11.2305 219.333 11.2305H219.581C220.342 11.2305 220.943 11.4924 221.407 11.9399C221.792 12.3113 222.076 12.7375 222.27 13.2128C222.271 13.2181 222.273 13.2234 222.276 13.2287L228.6 29.3675C228.602 29.3701 228.602 29.3728 228.603 29.3755C228.772 29.8142 228.832 30.186 228.832 30.4785C228.832 31.216 228.603 31.8317 228.173 32.3363C227.728 32.8573 227.132 33.1589 226.352 33.1589C225.235 33.1589 224.464 32.6057 224.033 31.5149C224.031 31.5103 224.028 31.5058 224.027 31.5012L222.764 28.2261H216.15L214.887 31.5012C214.886 31.5058 214.884 31.5103 214.881 31.5149C214.45 32.6057 213.679 33.1589 212.562 33.1589ZM218.152 23.0531H220.762L219.458 19.6568L218.152 23.0531Z" fill="url(#paint1_linear_16_439)"/>
<path fill-rule="evenodd" clip-rule="evenodd" d="M232.231 33.1588C231.534 33.1588 230.95 32.8939 230.473 32.3786C229.996 31.8631 229.751 31.2317 229.751 30.4783V14.0714C229.751 13.333 229.988 12.7025 230.455 12.1777C230.936 11.6374 231.528 11.3643 232.231 11.3643H241.879C242.557 11.3643 243.13 11.6225 243.6 12.1311C244.071 12.6397 244.31 13.2586 244.31 13.991C244.31 14.7395 244.061 15.3596 243.58 15.8586C243.115 16.3416 242.55 16.591 241.879 16.591H234.736V19.5676H241.011C241.689 19.5676 242.262 19.8259 242.732 20.3345C243.203 20.8431 243.442 21.4621 243.442 22.1945C243.442 22.943 243.193 23.5631 242.712 24.0621C242.247 24.5451 241.682 24.7944 241.011 24.7944H234.736V30.4783C234.736 31.2387 234.483 31.8778 233.983 32.398C233.498 32.9033 232.914 33.1588 232.231 33.1588ZM232.479 22.1555V22.2066C232.488 22.198 232.497 22.1895 232.507 22.181C232.497 22.1727 232.488 22.1641 232.479 22.1555Z" fill="url(#paint2_linear_16_439)"/>
<path fill-rule="evenodd" clip-rule="evenodd" d="M247.311 33.0247C246.614 33.0247 246.03 32.7599 245.553 32.2445C245.077 31.7291 244.831 31.0976 244.831 30.3443V14.0714C244.831 13.333 245.068 12.7025 245.535 12.1777C246.017 11.6374 246.608 11.3643 247.311 11.3643H257.258C257.935 11.3643 258.508 11.6225 258.978 12.1311C259.449 12.6397 259.688 13.2586 259.688 13.991C259.688 14.7395 259.439 15.3596 258.958 15.8586C258.493 16.3416 257.927 16.591 257.258 16.591H249.816V19.5676H256.365C257.042 19.5676 257.615 19.8259 258.085 20.3345C258.556 20.8431 258.795 21.4621 258.795 22.1944C258.795 22.943 258.546 23.5631 258.066 24.0621C257.6 24.5451 257.035 24.7944 256.365 24.7944H249.816V27.7979H257.258C257.935 27.7979 258.508 28.0561 258.978 28.5648C259.449 29.0734 259.688 29.6924 259.688 30.4247C259.688 31.1733 259.439 31.7933 258.958 32.2924C258.493 32.7754 257.927 33.0247 257.258 33.0247H247.311ZM247.559 22.1555V22.2066C247.568 22.198 247.578 22.1895 247.587 22.181C247.578 22.1727 247.568 22.1641 247.559 22.1555Z" fill="url(#paint3_linear_16_439)"/>
<path fill-rule="evenodd" clip-rule="evenodd" d="M105.89 66.8569C105.423 67.1242 104.918 67.3831 104.375 67.6321C104.371 67.6355 104.367 67.6371 104.363 67.6388C102.433 68.5185 100.499 68.9319 98.57 68.9319C97.4352 68.9319 95.7884 68.7227 93.6523 68.1451C93.345 68.0621 93.0428 67.9591 92.7473 67.8346C90.2576 66.7955 88.9413 66.1413 88.7673 66.0338C87.5162 65.2675 86.0536 63.9962 84.5592 62.0219C83.318 60.387 82.1118 57.8302 81.4136 54.141C81.4086 54.1147 81.4036 54.0883 81.399 54.062C81.0096 51.8977 80.8213 49.8079 80.8213 47.7938C80.8213 45.2769 81.1524 43.3113 81.6105 41.8672C81.7045 41.5709 81.8138 41.2807 81.9381 40.9979C83.7285 36.9239 86.1778 33.7733 89.1804 31.4705C91.3589 29.7812 93.5822 28.7716 95.7235 28.333C96.1463 28.2417 97.4105 28.0731 99.5244 27.9207C100.161 27.8749 100.799 27.9149 101.426 28.0397C104.064 28.5649 106.14 29.9023 107.736 31.8906C107.884 32.0754 108.027 32.2634 108.163 32.4547C108.505 32.2774 108.853 32.1172 109.206 31.9736C110.071 31.621 110.989 31.4406 111.913 31.4406C115.772 31.4406 118.918 32.3136 121.433 33.7961C122.426 33.0043 123.707 32.3277 125.362 31.9066C126.543 31.5935 127.724 31.4406 128.904 31.4406C131.857 31.4406 133.987 32.2103 135.505 33.3739C136.337 33.2524 137.171 33.1928 138.008 33.1928C138.413 33.1928 138.818 33.207 139.223 33.2355C140.764 32.0254 142.789 31.3395 145.396 31.3395C146.885 31.3395 148.242 31.6396 149.471 32.1791C150.639 31.8407 151.817 31.6765 153.003 31.6765C155.846 31.6765 158.375 32.5106 160.601 34.1642C162.079 33.0874 163.738 32.3501 165.532 31.9132C165.824 31.8422 166.119 31.7895 166.416 31.7557C167.742 31.6049 168.84 31.5175 169.712 31.4841L169.715 31.4838C170.799 31.3981 171.372 31.3732 171.429 31.3732C173.868 31.3732 175.926 31.9198 177.652 32.8858C178.385 32.49 179.228 32.1541 180.201 31.9066C181.382 31.5935 182.563 31.4406 183.743 31.4406C186.696 31.4406 188.826 32.2103 190.343 33.3739C191.176 33.2524 192.01 33.1928 192.847 33.1928C193.435 33.1928 194.023 33.2227 194.61 33.283C197.841 33.2986 200.447 34.8455 202.29 38.2049C202.31 38.2424 202.33 38.2802 202.35 38.3182C203.181 39.8874 203.737 41.8308 203.737 44.222C203.737 45.8129 203.474 47.301 202.984 48.693C202.963 48.7521 202.941 48.8111 202.92 48.8698C201.424 52.8369 198.859 54.4527 196.158 54.8989C195.614 55.0247 195.107 55.1416 194.637 55.2491C194.766 56.2864 194.82 57.1272 194.82 57.7683C194.82 60.5619 194.038 62.5613 193.039 63.9907C191.399 66.8038 188.573 68.8987 183.899 68.8987C181.229 68.8987 179.18 68.238 177.621 67.179C177.408 67.2835 177.188 67.3865 176.962 67.4894C176.949 67.4944 176.936 67.4993 176.924 67.506C175.063 68.3293 173.157 68.7294 171.211 68.7294C170.101 68.7294 168.491 68.5351 166.403 68.0056C166.089 67.9259 165.779 67.8247 165.477 67.7035C164.271 67.2188 163.339 66.8171 162.678 66.52C161.107 67.9027 158.764 68.9999 155.342 68.9999C153.588 68.9999 152.127 68.7111 150.913 68.2231C149.614 68.7128 148.041 68.9999 146.145 68.9999C141.635 68.9999 138.934 67.2852 137.378 65.2058C135.669 67.3865 133.032 68.8987 129.06 68.8987C126.33 68.8987 124.25 68.2081 122.68 67.1076C122.226 67.3649 121.749 67.5724 121.256 67.7268C118.507 68.5899 116.104 68.9667 114.064 68.9667C111.34 68.9667 108.84 68.3675 106.551 67.2288C106.325 67.1159 106.105 66.9914 105.89 66.8569ZM180.043 55.0939C179.979 55.2264 179.917 55.3589 179.859 55.49C179.857 55.4928 179.857 55.4956 179.856 55.4985C179.916 55.3673 179.979 55.2379 180.045 55.1105L180.043 55.0939ZM193.59 38.5229V38.5267C193.753 38.4978 193.914 38.4746 194.078 38.457C193.916 38.4746 193.753 38.4962 193.59 38.5229ZM193.189 49.8112C193.704 49.8965 194.244 49.9158 194.809 49.8736C194.301 49.9114 193.791 49.8947 193.288 49.8236C193.255 49.819 193.221 49.8148 193.189 49.8112Z" fill="#2D1C14"/>
<path d="M100.035 36.1982C98.4758 36.3106 97.5404 36.4004 97.2287 36.4678C96.0232 36.715 94.8281 37.299 93.6434 38.2201C91.6481 39.7477 90.0582 41.8593 88.8735 44.5551C88.624 45.3414 88.4994 46.4197 88.4994 47.7901C88.4994 49.2952 88.6448 50.8565 88.9358 52.474C89.3099 54.4509 89.8296 55.8774 90.4947 56.7536C91.2429 57.742 91.9288 58.4272 92.5523 58.8091C92.6978 58.8989 93.6851 59.3258 95.5141 60.0896C96.8442 60.449 97.8626 60.6287 98.5692 60.6287C99.5045 60.6287 100.44 60.4153 101.375 59.9884C102.747 59.3594 103.656 58.7192 104.103 58.0677C104.55 57.4163 104.825 56.4054 104.929 55.035C104.971 54.3611 104.81 53.7714 104.446 53.2659C104.082 52.7604 103.589 52.5077 102.965 52.5077C102.591 52.5077 102.217 52.6088 101.843 52.8109C100.762 53.5523 99.7644 53.9229 98.8499 53.9229C98.0185 53.9229 97.1559 53.6084 96.2622 52.9794C95.4724 51.7888 95.0775 50.3399 95.0775 48.6325C95.0775 46.8129 95.3997 45.3863 96.044 44.3529C96.4805 43.6565 97.4885 43.0725 99.0681 42.6007C100.357 42.2188 101.167 41.9267 101.5 41.7246C102.269 41.2303 102.653 40.489 102.653 39.5006C102.653 38.6469 102.414 37.9224 101.936 37.3271C101.458 36.7318 100.824 36.3555 100.035 36.1982Z" fill="url(#paint4_linear_16_439)"/>
<path d="M111.913 39.7368C110.479 40.3209 109.325 41.6126 108.452 43.6119C108.016 44.6228 107.475 46.4089 106.831 48.9698C106.706 50.0706 106.644 51.0479 106.644 51.9015C106.644 53.6088 106.878 55.0241 107.345 56.1474C107.813 57.2706 108.619 58.4499 109.762 59.6855C111.071 60.337 112.505 60.6628 114.064 60.6628C115.498 60.6628 117.182 60.3595 119.114 59.7529C120.569 58.6072 121.505 57.3604 121.92 56.0126C122.274 54.8668 122.43 52.9124 122.388 50.1492C121.868 46.5324 120.84 43.9152 119.302 42.2978C117.66 40.5904 115.197 39.7368 111.913 39.7368ZM111.944 50.9242C111.965 50.3851 112.131 49.6887 112.443 48.835C112.817 47.8017 113.191 47.2737 113.565 47.2513C114.293 47.2064 114.989 47.3748 115.654 47.7567C116.423 48.206 116.807 48.8126 116.807 49.5764C116.807 51.8004 115.966 52.9124 114.282 52.9124C112.661 52.9124 111.882 52.2497 111.944 50.9242Z" fill="url(#paint5_linear_16_439)"/>
<path d="M125.693 40.8825C125.069 41.7586 124.757 44.0163 124.757 47.6556C124.757 49.3854 124.861 51.4072 125.069 53.7211C125.36 57.0459 125.755 58.8656 126.254 59.1801C126.586 60.1236 127.522 60.5953 129.06 60.5953C130.535 60.5953 131.481 60.1236 131.897 59.1801C132.167 58.933 132.302 58.4612 132.302 57.7648C132.302 57.0459 132.167 55.9564 131.897 54.4962C131.626 53.0359 131.491 51.9464 131.491 51.2275C131.491 50.4188 131.637 49.8571 131.928 49.5426C132.344 48.8238 133.507 48.2285 135.42 47.7567C136.438 47.5321 137.966 47.1838 140.002 46.7121C140.418 46.6672 140.74 46.3414 140.969 45.7349C141.135 45.2631 141.218 44.7576 141.218 44.2185C141.218 43.4996 141.094 42.9043 140.844 42.4326C140.512 41.826 140.044 41.5452 139.441 41.5901C138.963 41.5227 138.485 41.4891 138.007 41.4891C135.97 41.4891 133.965 42.1068 131.99 43.3424C131.512 43.4098 131.273 43.3087 131.273 43.0391C131.294 42.9268 131.356 42.5786 131.46 41.9945C131.543 41.5003 131.481 41.1296 131.273 40.8825C131.19 40.1187 130.4 39.7368 128.904 39.7368C128.322 39.7368 127.74 39.8154 127.158 39.9727C126.347 40.1748 125.859 40.4781 125.693 40.8825Z" fill="url(#paint6_linear_16_439)"/>
<path d="M148.888 59.3879C148.909 60.2612 147.994 60.6965 146.144 60.6965C144.274 60.6965 143.276 60.295 143.151 59.4862C142.694 56.5714 142.465 53.0613 142.465 48.9558C142.465 44.7858 142.704 42.1602 143.182 41.0847C143.473 40.1187 144.211 39.6357 145.396 39.6357C145.915 39.6357 146.383 39.7481 146.799 39.9727C147.319 40.2423 147.599 40.6242 147.641 41.1184C147.641 41.4104 147.661 41.5902 147.703 41.6576C147.765 41.7924 147.921 41.871 148.171 41.8934C148.607 41.9383 148.992 41.7924 149.324 41.4554C149.719 41.0286 150.145 40.7141 150.602 40.5119C151.392 40.1525 152.192 39.9727 153.003 39.9727C154.52 39.9727 155.835 40.5175 156.947 41.6014C158.059 42.6854 158.604 44.0304 158.584 45.6423C158.75 47.2064 158.833 49.0064 158.833 51.0395C158.833 55.041 158.583 57.9473 158.085 59.7586C157.773 60.3848 156.858 60.6965 155.341 60.6965C153.969 60.6965 153.2 60.3286 153.034 59.5929C152.847 59.3711 152.754 58.6466 152.754 57.4195C152.754 56.9084 152.769 56.1334 152.8 55.0972C152.831 54.061 152.847 53.286 152.847 52.7721C152.847 49.2282 152.338 47.5434 151.319 47.7231C151.112 47.768 150.571 47.8803 149.698 48.06C149.179 48.1724 148.867 48.6441 148.763 49.4725C148.721 49.6971 148.701 50.3346 148.701 51.3876C148.701 51.0057 148.763 53.6734 148.888 59.3879Z" fill="url(#paint7_linear_16_439)"/>
<path d="M170.119 39.7706C169.37 39.793 168.404 39.8716 167.219 40.0064C164.268 40.7253 162.366 43.3087 161.514 47.7568C161.327 48.7228 161.233 49.5428 161.233 50.2167C161.233 52.9799 161.867 55.159 163.135 56.754C163.863 57.6526 164.549 58.2928 165.193 58.6747C165.38 58.787 166.367 59.2026 168.154 59.9215C169.485 60.2585 170.503 60.4269 171.21 60.4269C172.166 60.4269 173.101 60.2247 174.016 59.8204C175.367 59.2138 176.271 58.6017 176.728 57.9839C177.185 57.3661 177.466 56.4057 177.57 55.1028C177.632 54.4288 177.476 53.8616 177.102 53.4011C176.728 52.9406 176.229 52.7103 175.606 52.7103C175.232 52.7103 174.857 52.8001 174.483 52.9798C173.631 53.5639 172.758 53.856 171.865 53.856C171.511 53.856 170.524 53.6201 168.903 53.1484C168.549 53.0361 168.243 52.817 167.983 52.4913C167.723 52.1655 167.593 51.8117 167.593 51.4298C167.593 51.003 167.77 50.6772 168.123 50.4525C168.186 50.4076 168.29 50.3852 168.435 50.3852C168.83 50.3852 169.459 50.4806 170.321 50.6716C171.184 50.8625 171.833 50.958 172.27 50.958C174.722 50.958 176.188 49.4304 176.666 46.3752C176.666 41.9047 174.92 39.6694 171.428 39.6694C171.386 39.6694 170.95 39.7032 170.119 39.7706ZM168.497 44.9936C168.497 44.5892 168.664 44.2692 168.996 44.0333C169.329 43.7974 169.693 43.6794 170.087 43.6794C170.462 43.6794 170.815 43.7974 171.147 44.0333C171.48 44.2692 171.646 44.5892 171.646 44.9936C171.646 45.398 171.48 45.7181 171.147 45.954C170.815 46.1899 170.462 46.3078 170.087 46.3078C169.693 46.3078 169.329 46.1899 168.996 45.954C168.664 45.7181 168.497 45.398 168.497 44.9936Z" fill="url(#paint8_linear_16_439)"/>
<path d="M180.532 40.8825C179.908 41.7586 179.596 44.0163 179.596 47.6556C179.596 49.3854 179.7 51.4072 179.908 53.7211C180.199 57.0459 180.594 58.8656 181.093 59.1801C181.425 60.1236 182.36 60.5953 183.898 60.5953C185.374 60.5953 186.32 60.1236 186.736 59.1801C187.006 58.933 187.141 58.4612 187.141 57.7648C187.141 57.0459 187.006 55.9564 186.736 54.4962C186.465 53.0359 186.33 51.9464 186.33 51.2275C186.33 50.4188 186.476 49.8571 186.767 49.5426C187.182 48.8238 188.346 48.2285 190.258 47.7567C191.277 47.5321 192.805 47.1838 194.841 46.7121C195.257 46.6672 195.579 46.3414 195.808 45.7349C195.974 45.2631 196.057 44.7576 196.057 44.2185C196.057 43.4996 195.932 42.9043 195.683 42.4326C195.351 41.826 194.883 41.5452 194.28 41.5901C193.802 41.5227 193.324 41.4891 192.846 41.4891C190.809 41.4891 188.804 42.1068 186.829 43.3424C186.351 43.4098 186.112 43.3087 186.112 43.0391C186.133 42.9268 186.195 42.5786 186.299 41.9945C186.382 41.5003 186.32 41.1296 186.112 40.8825C186.029 40.1187 185.239 39.7368 183.743 39.7368C183.161 39.7368 182.579 39.8154 181.997 39.9727C181.186 40.1748 180.698 40.4781 180.532 40.8825Z" fill="url(#paint9_linear_16_439)"/>
<path fill-rule="evenodd" clip-rule="evenodd" d="M18.2242 13.319C18.3073 12.6367 18.4321 11.9936 18.5932 11.3843C18.9361 11.6033 19.2635 11.8532 19.5674 12.1396C19.0764 12.3053 18.6295 12.6985 18.2242 13.319Z" fill="#2D1C14"/>
<path fill-rule="evenodd" clip-rule="evenodd" d="M57.5711 11.9429C57.7425 12.2464 57.9037 12.5724 58.0544 12.9237C57.7764 12.8984 57.4957 12.8845 57.2151 12.8845C57.3294 12.5781 57.4542 12.2492 57.5711 11.9429Z" fill="#2D1C14"/>
<path fill-rule="evenodd" clip-rule="evenodd" d="M18.2222 13.3189C18.3061 12.6365 18.4309 11.9923 18.5927 11.3843C18.936 11.6024 19.2618 11.853 19.5669 12.1397C19.0758 12.305 18.6275 12.6981 18.2222 13.3189ZM57.5697 11.9405C57.7407 12.2446 57.9029 12.5711 58.0538 12.9219C57.7751 12.8962 57.4954 12.883 57.2147 12.8822C57.3291 12.5758 57.4527 12.2466 57.5697 11.9405Z" fill="#2D1C14"/>
<path fill-rule="evenodd" clip-rule="evenodd" d="M23.9304 43.1531C22.8581 43.4933 21.7232 43.6681 20.5233 43.6681C19.1149 43.6681 17.8516 43.4267 16.7187 42.9949C15.3019 43.7047 13.5546 44.1061 11.4199 44.1061C8.84087 44.1061 6.6839 43.3347 4.88461 42.0382C4.83916 42.0055 4.794 41.9723 4.74931 41.9384C2.02443 39.8829 0.548263 37.0412 0.38317 33.3764C0.382555 33.3618 0.381942 33.3472 0.381328 33.3326C0.124243 26.935 0 22.8667 0 21.1281C0 16.9915 0.199188 13.6759 0.554254 11.1785L0.555021 11.1729C1.04508 7.66892 3.39156 2.97511 10.7028 2.97511C13.2692 2.97511 15.274 3.48554 16.8225 4.33161C17.9038 3.92244 19.0162 3.75013 20.1181 3.75013C21.3688 3.75013 22.6101 3.96294 23.8286 4.42772C25.4451 3.50347 27.4476 2.93228 29.9095 2.97627C29.9228 2.97644 29.9361 2.97677 29.9495 2.9771C32.6886 3.04151 34.7272 3.92244 36.2278 5.09037C37.805 3.79927 40.0799 2.90771 43.313 2.90771C44.5812 2.90771 45.8052 3.07836 46.9859 3.40918C47.0223 3.41947 47.0587 3.42993 47.0949 3.44072C49.8502 4.25974 51.5535 5.68812 52.5802 7.28348C53.994 4.92371 56.6892 2.90771 61.5511 2.90771C62.8193 2.90771 64.0432 3.07836 65.224 3.40918C65.2604 3.41947 65.2967 3.42993 65.3329 3.44072C68.0701 4.25426 69.7689 5.66936 70.7977 7.25178C72.2791 6.75679 73.7802 6.51327 75.2996 6.51327C77.2021 6.51327 78.7704 6.82733 80.058 7.35851C81.2943 6.89141 82.7703 6.61436 84.5278 6.61436C86.5343 6.61436 88.3009 7.05923 89.8395 7.82164C94.3113 9.97508 95.7752 13.5672 95.5616 17.6032C95.461 19.581 94.9828 21.966 93.9716 24.7165C93.3885 26.3044 92.4308 28.5269 91.0787 31.3742C91.077 31.3779 91.0752 31.3815 91.0735 31.3852C90.3597 32.8828 89.2787 35.1179 87.83 38.0905C87.8074 38.1371 87.7842 38.1834 87.7607 38.2296C83.8688 45.8603 78.9427 47.8272 75.7562 47.6355C72.1335 47.4547 69.493 46.0175 67.598 43.9722C67.447 43.8093 67.3033 43.646 67.1664 43.4823C65.7821 43.8548 64.3671 44.0387 62.9229 44.0387C59.388 44.0387 56.5916 42.9272 54.457 40.8493C54.061 41.1388 53.6378 41.4163 53.1871 41.6814C53.181 41.6851 53.1747 41.6887 53.1684 41.6924C50.4697 43.2692 47.6387 44.0387 44.6847 44.0387C41.5747 44.0387 39.0361 43.1782 37.0172 41.5561C35.3867 43.0836 32.9165 44.2746 29.2526 44.2746C27.0676 44.2746 25.3203 43.8349 23.9304 43.1531ZM18.2222 13.3189C18.6275 12.698 19.0757 12.305 19.5669 12.1396C19.2617 11.853 18.936 11.6023 18.5926 11.3842C18.4309 11.9922 18.306 12.6365 18.2222 13.3189ZM57.5697 11.9404C57.4527 12.2465 57.329 12.5757 57.2146 12.8821C57.4954 12.883 57.775 12.8961 58.0538 12.9218C57.9028 12.5711 57.7406 12.2445 57.5697 11.9404Z" fill="#2D1C14"/>
<path d="M8.14652 12.4234C8.25044 11.6596 9.10261 11.2749 10.703 11.2749C12.719 11.2749 13.7686 11.859 13.8517 13.0271C13.9141 13.409 13.9453 13.8808 13.9453 14.4424V15.3186C13.9245 16.1048 13.914 16.3968 13.914 16.1947C13.914 17.4527 14.1843 18.2389 14.7246 18.5534C15.4521 18.7107 16.0652 18.2277 16.5641 17.1045C16.7927 16.5653 17.2395 15.487 17.9046 13.8695C18.5281 12.6564 19.2659 12.0499 20.1181 12.0499C20.9702 12.0499 21.7912 12.3925 22.581 13.0777C23.3708 13.7629 23.7657 14.5547 23.7657 15.4533C23.7657 15.7004 23.7242 15.9701 23.641 16.2621C23.2877 17.5426 22.5292 18.8792 21.3652 20.272C20.3053 21.5525 19.1933 22.5635 18.0294 23.3048C19.1933 23.9114 20.3572 25.0121 21.5211 26.6071C22.9137 28.5391 23.7139 30.4711 23.9217 32.403C24.0049 33.3016 23.6515 34.0429 22.8617 34.627C22.1758 35.1213 21.3963 35.3684 20.5234 35.3684C19.7128 35.3684 19.0477 35.155 18.5281 34.7281C18.1748 34.2339 17.7904 33.4139 17.3747 32.2682C16.8759 30.8754 16.5225 30.0106 16.3146 29.6736C15.8574 28.8873 15.3274 28.4942 14.7246 28.4942C14.5584 28.4942 14.3818 28.5194 14.1947 28.5643C13.7167 28.8788 13.4776 29.477 13.4776 30.3559C13.4776 31.1927 13.7167 32.4227 14.1947 34.0486C13.9453 35.2224 13.0204 35.8065 11.42 35.8065C10.5263 35.8065 9.76761 35.5818 9.14408 35.1325C8.45821 34.6159 8.09453 33.8969 8.05296 32.9731C7.80355 26.7644 7.67889 22.8162 7.67889 21.1285C7.67889 17.5089 7.83476 14.6053 8.14652 12.4234Z" fill="url(#paint10_linear_16_439)"/>
<path d="M26.4158 21.5523C26.7899 20.811 27.7045 20.4402 29.1594 20.4402C30.739 20.4402 31.747 20.8558 32.1835 21.687C32.516 22.3385 32.6822 24.5738 32.6822 28.3928C32.6822 31.7625 32.5471 33.9192 32.2769 34.8627C31.9859 35.604 30.9779 35.9747 29.2528 35.9747C27.6732 35.9747 26.7483 35.6378 26.4781 34.9638C26.0209 33.8406 25.7923 31.3918 25.7923 27.6177C25.7923 24.1806 26.0001 22.1589 26.4158 21.5523ZM25.7923 14.8802C25.9378 12.4316 27.268 11.2297 29.7829 11.2747C30.739 11.2971 31.4456 11.5274 31.9028 11.9655C32.3601 12.4035 32.703 13.128 32.9316 14.1389C33.0148 14.4983 33.0564 14.8466 33.0564 15.1835C33.0564 16.3742 32.6874 17.3065 31.9496 17.9804C31.2118 18.6543 30.2817 18.9913 29.1594 18.9913C28.1618 18.9913 27.3355 18.5757 26.6808 17.7445C26.0261 16.9133 25.73 15.9586 25.7923 14.8802Z" fill="url(#paint11_linear_16_439)"/>
<path d="M36.1429 21.5184C36.3091 21.5858 36.4857 21.6195 36.6728 21.6195C36.9222 21.6195 37.3015 21.5465 37.8107 21.4005C38.3199 21.2544 38.6993 21.1814 38.9488 21.1814C39.3437 21.1814 39.7281 21.2937 40.1022 21.5184C40.2685 21.6082 40.3516 21.9453 40.3516 22.5293C40.3516 23.3605 40.2529 24.6073 40.0554 26.2697C39.858 27.9321 39.7592 29.1789 39.7592 30.0101C39.7592 31.3805 39.9255 32.4026 40.2581 33.0765C41.131 34.8512 42.6066 35.7386 44.685 35.7386C46.3685 35.7386 47.9794 35.2894 49.5175 34.3908C50.9308 33.5596 51.6374 32.4475 51.6374 31.0547C51.6374 29.6843 51.0866 28.7521 49.9851 28.2579C49.7149 28.1905 49.4654 28.1568 49.2368 28.1568C48.7795 28.1568 48.2964 28.3421 47.7871 28.7128C47.2779 29.0834 46.9089 29.2688 46.6803 29.2688C46.514 29.2688 46.3167 29.2238 46.0881 29.134C45.5477 28.9093 45.2775 27.7187 45.2775 25.5621C45.2775 23.383 45.4645 22.0688 45.8386 21.6195C46.0257 21.2376 46.7842 21.1589 48.1144 21.3836C49.5693 21.6082 50.4839 21.5521 50.858 21.2151C51.3153 20.9231 51.5438 20.193 51.5438 19.0248C51.5438 18.5081 51.4816 17.9578 51.3569 17.3737C51.2114 16.5649 50.9931 16.0932 50.7021 15.9584C50.2657 15.7337 49.424 15.7112 48.1769 15.8909C46.7636 16.0931 46.0568 15.9022 46.0568 15.3181C46.0568 15.8124 46.1088 15.5596 46.2127 14.5599C46.3166 13.5602 46.3583 12.8807 46.3375 12.5213C46.3167 12.0495 45.8906 11.6901 45.0593 11.443C44.4981 11.2857 43.9161 11.207 43.3134 11.207C41.5883 11.207 40.6945 11.589 40.6321 12.3528C40.5906 12.9818 40.6842 13.8466 40.9128 14.9474C40.9128 15.1271 40.7881 15.4192 40.5387 15.8236C40.3933 15.9584 40.1542 16.0257 39.8217 16.0257C39.5099 16.0257 39.0578 15.9752 38.4654 15.8741C37.8731 15.7731 37.4211 15.7225 37.1093 15.7225C36.7144 15.7225 36.3923 15.7898 36.1429 15.9246C35.3738 16.1493 34.9893 17.0929 34.9893 18.7553C34.9893 20.4177 35.3738 21.3387 36.1429 21.5184Z" fill="url(#paint12_linear_16_439)"/>
<path d="M54.381 21.5184C54.5472 21.5858 54.7238 21.6195 54.9109 21.6195C55.1603 21.6195 55.5396 21.5465 56.0488 21.4005C56.558 21.2544 56.9373 21.1814 57.1867 21.1814C57.5816 21.1814 57.9662 21.2937 58.3403 21.5184C58.5066 21.6082 58.5897 21.9453 58.5897 22.5293C58.5897 23.3605 58.491 24.6073 58.2935 26.2697C58.0961 27.9321 57.9973 29.1789 57.9973 30.0101C57.9973 31.3805 58.1636 32.4026 58.4962 33.0765C59.3691 34.8512 60.8447 35.7386 62.9231 35.7386C64.6066 35.7386 66.2174 35.2894 67.7554 34.3908C69.1687 33.5596 69.8755 32.4475 69.8755 31.0547C69.8755 29.6843 69.3246 28.7521 68.223 28.2579C67.9528 28.1905 67.7035 28.1568 67.4749 28.1568C67.0176 28.1568 66.5345 28.3421 66.0252 28.7128C65.516 29.0834 65.147 29.2688 64.9184 29.2688C64.7521 29.2688 64.5546 29.2238 64.326 29.134C63.7856 28.9093 63.5155 27.7187 63.5155 25.5621C63.5155 23.383 63.7026 22.0688 64.0767 21.6195C64.2638 21.2376 65.0223 21.1589 66.3525 21.3836C67.8074 21.6082 68.722 21.5521 69.0961 21.2151C69.5534 20.9231 69.7819 20.193 69.7819 19.0248C69.7819 18.5081 69.7195 17.9578 69.5948 17.3737C69.4493 16.5649 69.2311 16.0932 68.9401 15.9584C68.5036 15.7337 67.6619 15.7112 66.4148 15.8909C65.0015 16.0931 64.2949 15.9022 64.2949 15.3181C64.2949 15.8124 64.3469 15.5596 64.4508 14.5599C64.5547 13.5602 64.5962 12.8807 64.5754 12.5213C64.5546 12.0495 64.1286 11.6901 63.2972 11.443C62.736 11.2857 62.1541 11.207 61.5513 11.207C59.8263 11.207 58.9326 11.589 58.8702 12.3528C58.8287 12.9818 58.9223 13.8466 59.1509 14.9474C59.1509 15.1271 59.0261 15.4192 58.7767 15.8236C58.6312 15.9584 58.3922 16.0257 58.0596 16.0257C57.7479 16.0257 57.2959 15.9752 56.7035 15.8741C56.1112 15.7731 55.659 15.7225 55.3473 15.7225C54.9524 15.7225 54.6304 15.7898 54.381 15.9246C53.6119 16.1493 53.2274 17.0929 53.2274 18.7553C53.2274 20.4177 53.6119 21.3387 54.381 21.5184Z" fill="url(#paint13_linear_16_439)"/>
<path d="M71.4342 16.8343C71.4342 16.1379 71.9434 15.5988 72.9619 15.2169C73.7309 14.9473 74.5103 14.8125 75.3001 14.8125C76.9005 14.8125 77.7525 15.2281 77.8565 16.0537C78.0227 17.2837 78.189 18.3676 78.3553 19.3055C78.5839 20.6028 79.0515 21.3301 79.7582 21.4846C80.5064 21.4846 81.0054 20.7994 81.2548 19.4291C81.3587 18.6877 81.5353 17.5757 81.7847 16.0931C81.9926 15.3068 82.907 14.9136 84.5281 14.9136C85.3387 14.9136 86.0558 15.0709 86.6793 15.3854C87.5315 15.7897 87.9368 16.3738 87.8952 17.1376C87.8329 18.3956 87.4795 19.9008 86.8352 21.6531C86.3156 23.0683 85.4531 25.0452 84.2476 27.5838C83.541 29.0664 82.4705 31.2793 81.0364 34.2222C79.249 37.7267 77.6071 39.434 76.1106 39.3441C74.7596 39.2768 73.7308 38.8639 73.0242 38.1001C72.5669 37.6059 72.3384 37.1482 72.3384 36.7213C72.3384 35.6879 73.232 33.7475 75.0195 30.9001C76.2873 28.8811 76.9212 27.7466 76.9212 27.4995C76.9212 27.4097 76.8797 27.3423 76.7966 27.2974C74.926 26.5588 73.5022 24.9189 72.5253 22.386C71.7979 20.5018 71.4342 18.6512 71.4342 16.8343Z" fill="url(#paint14_linear_16_439)"/>
<path d="M236.572 61.6189C235.484 60.7906 235.223 59.1103 235.989 57.8656C236.756 56.621 238.259 56.2835 239.347 57.1117C240.435 57.9399 240.696 59.6203 239.929 60.8649C239.163 62.1095 237.66 62.4471 236.572 61.6189Z" fill="#2D1C14"/>
<path d="M234.75 56.1702C233.612 55.416 233.238 53.7508 233.914 52.4509C234.591 51.151 236.061 50.7087 237.199 51.4629C238.337 52.2172 238.711 53.8824 238.034 55.1823C237.358 56.4822 235.887 56.9245 234.75 56.1702Z" fill="#2D1C14"/>
<path d="M225.916 56.894C227.173 57.1394 228.313 56.1177 228.461 54.6121C228.61 53.1065 227.711 51.6871 226.454 51.4418C225.197 51.1964 224.057 52.2181 223.909 53.7237C223.761 55.2293 224.659 56.6487 225.916 56.894Z" fill="#2D1C14"/>
<path d="M230.666 54.0035C231.908 54.341 233.113 53.4104 233.358 51.9249C233.603 50.4394 232.795 48.9615 231.553 48.6239C230.311 48.2863 229.106 49.217 228.861 50.7025C228.616 52.188 229.424 53.6659 230.666 54.0035Z" fill="#2D1C14"/>
<path fill-rule="evenodd" clip-rule="evenodd" d="M232.002 55.6757C232.028 55.6822 232.054 55.6915 232.08 55.7033C233.585 56.3955 233.923 57.9815 234.011 59.5774C234.04 60.0873 234.271 60.5464 234.961 61.3914C235.421 61.9569 235.937 63.096 235.464 64.5403C234.991 65.9846 233.295 66.6533 231.791 65.961C230.112 65.1891 230.386 64.4845 229.45 64.0539C229.435 64.047 229.421 64.0385 229.407 64.0282C229.392 64.0253 229.378 64.0207 229.364 64.0145C228.472 63.6039 228.034 64.2331 226.437 63.4986C225.004 62.8395 224.196 61.0189 224.669 59.5746C225.142 58.1303 226.131 57.6835 226.767 57.6227C227.717 57.5316 228.133 57.3701 228.435 57.0125C229.384 55.8936 230.499 54.9764 231.934 55.6361C231.958 55.6472 231.979 55.66 232.002 55.6757Z" fill="#2D1C14"/>
<path d="M148.379 11.368C147.187 11.8881 145.821 11.133 145.327 9.68137C144.834 8.22974 145.4 6.63132 146.592 6.1112C147.784 5.59108 149.15 6.34621 149.643 7.79784C150.137 9.24948 149.571 10.8479 148.379 11.368Z" fill="#2D1C14"/>
<path d="M143.194 9.91069C142.035 10.5162 140.62 9.86602 140.033 8.45839C139.447 7.05076 139.91 5.41876 141.069 4.81323C142.227 4.20769 143.642 4.8579 144.229 6.26553C144.816 7.67316 144.352 9.30515 143.194 9.91069Z" fill="#2D1C14"/>
<path d="M138.74 18.1886C139.577 17.1964 139.41 15.5371 138.366 14.4824C137.323 13.4278 135.799 13.3772 134.962 14.3694C134.125 15.3616 134.292 17.021 135.336 18.0756C136.379 19.1303 137.903 19.1809 138.74 18.1886Z" fill="#2D1C14"/>
<path d="M139.228 12.32C140.127 11.3908 140.067 9.72248 139.094 8.59365C138.122 7.46482 136.604 7.30297 135.705 8.23214C134.807 9.16131 134.866 10.8296 135.839 11.9585C136.812 13.0873 138.329 13.2491 139.228 12.32Z" fill="#2D1C14"/>
<path fill-rule="evenodd" clip-rule="evenodd" d="M141.351 11.6973C141.369 11.6774 141.39 11.6585 141.412 11.6419C142.722 10.6642 144.075 11.3183 145.302 12.2104C145.695 12.4951 146.157 12.5609 147.147 12.4352C147.81 12.3518 148.926 12.5679 149.744 13.8899C150.562 15.2121 150.157 17.1988 148.847 18.1765C147.386 19.2666 147.01 18.5814 146.196 19.1895C146.183 19.1993 146.169 19.2076 146.154 19.2143C146.144 19.2262 146.133 19.2364 146.121 19.2452C145.344 19.825 145.577 20.6169 144.187 21.6542C142.94 22.585 141.165 22.2253 140.347 20.9031C139.529 19.581 139.723 18.3872 140.016 17.7579C140.452 16.8188 140.553 16.3326 140.449 15.8328C140.123 14.2671 140.037 12.6685 141.285 11.7367C141.306 11.7211 141.327 11.7087 141.351 11.6973Z" fill="#2D1C14"/>
<path d="M62.252 57.9917C61.1049 58.2316 60.0705 57.344 59.9416 56.0092C59.8127 54.6744 60.6381 53.3979 61.7852 53.158C62.9323 52.9181 63.9667 53.8057 64.0956 55.1405C64.2245 56.4753 63.3991 57.7518 62.252 57.9917Z" fill="#2D1C14"/>
<path d="M58.0307 55.6482C56.8971 55.97 55.802 55.1646 55.5847 53.8493C55.3675 52.5341 56.1104 51.2071 57.244 50.8853C58.3777 50.5636 59.4728 51.3689 59.69 52.6842C59.9073 53.9994 59.1644 55.3265 58.0307 55.6482Z" fill="#2D1C14"/>
<path d="M52.7047 61.8688C53.629 61.1467 53.8298 59.6664 53.1531 58.5623C52.4765 57.4583 51.1787 57.1487 50.2544 57.8708C49.3301 58.5929 49.1293 60.0732 49.8059 61.1772C50.4826 62.2812 51.7804 62.5908 52.7047 61.8688Z" fill="#2D1C14"/>
<path d="M54.1712 56.8968C55.1394 56.2403 55.4378 54.7739 54.8378 53.6216C54.2378 52.4693 52.9665 52.0674 51.9983 52.7239C51.0302 53.3804 50.7317 54.8467 51.3318 55.999C51.9318 57.1513 53.2031 57.5533 54.1712 56.8968Z" fill="#2D1C14"/>
<path fill-rule="evenodd" clip-rule="evenodd" d="M56.3238 56.9686C56.3437 56.9546 56.3656 56.9419 56.3882 56.9313C57.7179 56.3114 58.7429 57.1036 59.611 58.0797C59.8886 58.3913 60.2716 58.5261 61.1489 58.5857C61.7355 58.6261 62.6489 59.0012 63.075 60.278C63.5011 61.5549 62.7384 63.1969 61.4087 63.8168C59.9261 64.5081 59.7463 63.8544 58.9193 64.24C58.906 64.2462 58.8922 64.2509 58.8779 64.2542C58.8669 64.2627 58.8554 64.2697 58.8435 64.2753C58.055 64.6429 58.0897 65.3642 56.6789 66.022C55.4131 66.6121 53.9632 66.0017 53.5371 64.7248C53.1111 63.448 53.5274 62.453 53.9101 61.9607C54.4808 61.2259 54.6696 60.8245 54.6845 60.3765C54.7325 58.9734 54.992 57.5823 56.2592 56.9915C56.2805 56.9815 56.3012 56.9744 56.3238 56.9686Z" fill="#2D1C14"/>
<defs>
<linearGradient id="paint0_linear_16_439" x1="224.073" y1="12.5702" x2="223.73" y2="43.8543" gradientUnits="userSpaceOnUse">
<stop stop-color="#FFD586"/>
<stop offset="1" stop-color="#FFA805"/>
</linearGradient>
<linearGradient id="paint1_linear_16_439" x1="218.84" y1="14.2902" x2="219.025" y2="39.718" gradientUnits="userSpaceOnUse">
<stop stop-color="#FFD586"/>
<stop offset="1" stop-color="#FFA805"/>
</linearGradient>
<linearGradient id="paint2_linear_16_439" x1="224.073" y1="12.5701" x2="223.73" y2="43.8543" gradientUnits="userSpaceOnUse">
<stop stop-color="#FFD586"/>
<stop offset="1" stop-color="#FFA805"/>
</linearGradient>
<linearGradient id="paint3_linear_16_439" x1="224.073" y1="12.5701" x2="223.73" y2="43.8543" gradientUnits="userSpaceOnUse">
<stop stop-color="#FFD586"/>
<stop offset="1" stop-color="#FFA805"/>
</linearGradient>
<linearGradient id="paint4_linear_16_439" x1="112.185" y1="62.9594" x2="112.248" y2="36.0989" gradientUnits="userSpaceOnUse">
<stop stop-color="#9EBDEC"/>
<stop offset="1" stop-color="#CDEAFF"/>
</linearGradient>
<linearGradient id="paint5_linear_16_439" x1="112.186" y1="62.9598" x2="112.249" y2="36.0993" gradientUnits="userSpaceOnUse">
<stop stop-color="#9EBDEC"/>
<stop offset="1" stop-color="#CDEAFF"/>
</linearGradient>
<linearGradient id="paint6_linear_16_439" x1="112.186" y1="62.9598" x2="112.249" y2="36.0993" gradientUnits="userSpaceOnUse">
<stop stop-color="#9EBDEC"/>
<stop offset="1" stop-color="#CDEAFF"/>
</linearGradient>
<linearGradient id="paint7_linear_16_439" x1="112.185" y1="62.9598" x2="112.248" y2="36.0993" gradientUnits="userSpaceOnUse">
<stop stop-color="#9EBDEC"/>
<stop offset="1" stop-color="#CDEAFF"/>
</linearGradient>
<linearGradient id="paint8_linear_16_439" x1="112.185" y1="62.9598" x2="112.248" y2="36.0993" gradientUnits="userSpaceOnUse">
<stop stop-color="#9EBDEC"/>
<stop offset="1" stop-color="#CDEAFF"/>
</linearGradient>
<linearGradient id="paint9_linear_16_439" x1="112.185" y1="62.9598" x2="112.248" y2="36.0993" gradientUnits="userSpaceOnUse">
<stop stop-color="#9EBDEC"/>
<stop offset="1" stop-color="#CDEAFF"/>
</linearGradient>
<linearGradient id="paint10_linear_16_439" x1="31.1156" y1="38.0698" x2="31.1787" y2="11.2093" gradientUnits="userSpaceOnUse">
<stop stop-color="#BC90E4"/>
<stop offset="1" stop-color="#EC9BDA"/>
</linearGradient>
<linearGradient id="paint11_linear_16_439" x1="31.1157" y1="38.0695" x2="31.1787" y2="11.209" gradientUnits="userSpaceOnUse">
<stop stop-color="#BC90E4"/>
<stop offset="1" stop-color="#EC9BDA"/>
</linearGradient>
<linearGradient id="paint12_linear_16_439" x1="31.1156" y1="38.0693" x2="31.1786" y2="11.2088" gradientUnits="userSpaceOnUse">
<stop stop-color="#BC90E4"/>
<stop offset="1" stop-color="#EC9BDA"/>
</linearGradient>
<linearGradient id="paint13_linear_16_439" x1="31.1156" y1="38.0693" x2="31.1786" y2="11.2088" gradientUnits="userSpaceOnUse">
<stop stop-color="#BC90E4"/>
<stop offset="1" stop-color="#EC9BDA"/>
</linearGradient>
<linearGradient id="paint14_linear_16_439" x1="31.1156" y1="38.0693" x2="31.1786" y2="11.2087" gradientUnits="userSpaceOnUse">
<stop stop-color="#BC90E4"/>
<stop offset="1" stop-color="#EC9BDA"/>
</linearGradient>
</defs>
</svg>
